# xmcd CD database file
#
# Track frame offsets:
#	150
#	92817
#	167935
#	265414
#
# Disc length: 4774 seconds
#
# Revision: 1
# Processed by: cddbd v1.5.2PL0 Copyright (c) Steve Scherf et al.
# Submitted via: CDex 1.51
#
DISCID=3212a404
DTITLE=Philipp Schepmann - Narnia-Prinz Kaspian von Narnia
DYEAR=2005
DGENRE=Speech
TTITLE0=06 Kaspians Abenteuer in den Bergen - 2
TTITLE1=07 Die Geschoepfe, die im Verborgenen lebten
TTITLE2=08 Alt-Narnia in Gefahr
TTITLE3=09 Wie sie die Insel verliessen
EXTD=Die Chroniken von Narnia 4\ngelesen von Philipp Schepmann YEAR: 2005
EXTT0=
EXTT1=
EXTT2=
EXTT3=
PLAYORDER=
